<?xml version="1.0" encoding="UTF-8" standalone="no"?>
<svg
   width="3in"
   height="3in"
   viewBox="0 0 410 395"
   version="1.1"
   id="svg2"
   xmlns="http://www.w3.org/2000/svg"
   xmlns:svg="http://www.w3.org/2000/svg">
  <defs
     id="defs2" />
  <title
     id="title1">Insure With Mink - Editable Logo Mark V7</title>
  <metadata
     id="metadata1">Primary navy #082A55; decorative gold #B78322. Intended for use with the full Insure With Mink wordmark when brand recognition is not already established.</metadata>
  <path
     d="M 53 215 L 54 226 L 59 246 L 72 276 L 87 298 L 105 316 L 120 327 L 144 340 L 192 356 L 207 363 L 219 373 L 224 382 L 227 372 L 226 362 L 222 352 L 211 339 L 190 327 L 155 317 L 133 309 L 115 300 L 100 290 L 82 273 L 71 259 L 58 234 Z M 320 18 L 346 38 L 368 61 L 368 140 L 364 179 L 357 217 L 346 251 L 332 275 L 313 297 L 291 317 L 259 339 L 238 350 L 236 352 L 239 358 L 240 365 L 265 352 L 293 334 L 312 319 L 334 297 L 345 283 L 359 260 L 367 240 L 374 214 L 380 181 L 384 140 L 384 60 L 383 57 L 377 51 L 357 37 Z"
     fill="#B78322"
     fill-rule="evenodd"
     id="path1" />
  <path
     d="M 142 144 L 155 148 L 165 142 L 180 140 L 156 139 Z M 311 60 L 299 55 L 292 48 L 285 44 L 277 42 L 263 42 L 260 39 L 255 39 L 253 41 L 253 47 L 245 51 L 224 75 L 209 88 L 198 91 L 191 91 L 158 84 L 135 84 L 115 89 L 98 98 L 89 105 L 79 115 L 68 131 L 61 146 L 56 170 L 56 191 L 61 220 L 72 246 L 84 263 L 108 285 L 136 300 L 118 289 L 95 266 L 82 245 L 74 220 L 72 191 L 74 175 L 78 161 L 89 138 L 97 127 L 102 122 L 104 122 L 105 125 L 96 142 L 96 254 L 102 263 L 118 279 L 133 289 L 134 181 L 139 183 L 208 251 L 213 248 L 281 181 L 283 181 L 284 311 L 292 305 L 315 282 L 322 273 L 322 98 L 210 209 L 207 209 L 152 154 L 147 151 L 135 148 L 134 144 L 138 140 L 147 135 L 160 132 L 174 132 L 206 137 L 218 136 L 215 131 L 215 124 L 218 123 L 221 131 L 226 135 L 231 137 L 253 140 L 261 145 L 262 143 L 265 143 L 265 141 L 268 140 L 268 138 L 270 137 L 266 132 L 247 129 L 239 126 L 236 123 L 252 86 L 259 78 L 267 73 L 285 69 L 298 70 L 297 73 L 283 74 L 274 77 L 263 84 L 256 93 L 249 110 L 243 120 L 244 122 L 249 115 L 258 95 L 269 83 L 283 76 L 303 72 L 312 63 Z M 283 52 L 286 51 L 288 55 L 284 56 Z M 278 51 L 282 50 L 283 54 L 280 55 Z"
     fill="#082A55"
     fill-rule="evenodd"
     id="path2" />
</svg>
