<?xml version="1.0" encoding="UTF-8" standalone="no"?>
<svg
   width="7in"
   height="2.5in"
   viewBox="0 0 1050 375"
   version="1.1"
   id="svg1"
   xmlns="http://www.w3.org/2000/svg"
   xmlns:svg="http://www.w3.org/2000/svg">
  <defs
     id="defs1" />
  <title
     id="title1">Insure With Mink - Corrected Editable Horizontal Logo Lockup V7</title>
  <metadata
     id="metadata1">V7: divider moved to x=400 with reduced stroke width; wordmark shifted right; functional bronze text uses #82570F for a 6.33:1 contrast ratio on white.</metadata>
  <desc
     id="desc1">Full horizontal logo lockup with readable brand name, descriptor, and contrast-aware gold text for light backgrounds.</desc>
  <g
     id="logo-mark"
     transform="translate(25 0) scale(0.83)">
    <path
       id="logo-mark-gold"
       d="M 53 215 L 54 226 L 59 246 L 72 276 L 87 298 L 105 316 L 120 327 L 144 340 L 192 356 L 207 363 L 219 373 L 224 382 L 227 372 L 226 362 L 222 352 L 211 339 L 190 327 L 155 317 L 133 309 L 115 300 L 100 290 L 82 273 L 71 259 L 58 234 Z M 320 18 L 346 38 L 368 61 L 368 140 L 364 179 L 357 217 L 346 251 L 332 275 L 313 297 L 291 317 L 259 339 L 238 350 L 236 352 L 239 358 L 240 365 L 265 352 L 293 334 L 312 319 L 334 297 L 345 283 L 359 260 L 367 240 L 374 214 L 380 181 L 384 140 L 384 60 L 383 57 L 377 51 L 357 37 Z"
       fill="#B78322"
       fill-rule="evenodd" />
    <path
       id="logo-mark-navy"
       d="M 142 144 L 155 148 L 165 142 L 180 140 L 156 139 Z M 311 60 L 299 55 L 292 48 L 285 44 L 277 42 L 263 42 L 260 39 L 255 39 L 253 41 L 253 47 L 245 51 L 224 75 L 209 88 L 198 91 L 191 91 L 158 84 L 135 84 L 115 89 L 98 98 L 89 105 L 79 115 L 68 131 L 61 146 L 56 170 L 56 191 L 61 220 L 72 246 L 84 263 L 108 285 L 136 300 L 118 289 L 95 266 L 82 245 L 74 220 L 72 191 L 74 175 L 78 161 L 89 138 L 97 127 L 102 122 L 104 122 L 105 125 L 96 142 L 96 254 L 102 263 L 118 279 L 133 289 L 134 181 L 139 183 L 208 251 L 213 248 L 281 181 L 283 181 L 284 311 L 292 305 L 315 282 L 322 273 L 322 98 L 210 209 L 207 209 L 152 154 L 147 151 L 135 148 L 134 144 L 138 140 L 147 135 L 160 132 L 174 132 L 206 137 L 218 136 L 215 131 L 215 124 L 218 123 L 221 131 L 226 135 L 231 137 L 253 140 L 261 145 L 262 143 L 265 143 L 265 141 L 268 140 L 268 138 L 270 137 L 266 132 L 247 129 L 239 126 L 236 123 L 252 86 L 259 78 L 267 73 L 285 69 L 298 70 L 297 73 L 283 74 L 274 77 L 263 84 L 256 93 L 249 110 L 243 120 L 244 122 L 249 115 L 258 95 L 269 83 L 283 76 L 303 72 L 312 63 Z M 283 52 L 286 51 L 288 55 L 284 56 Z M 278 51 L 282 50 L 283 54 L 280 55 Z"
       fill="#082A55"
       fill-rule="evenodd" />
  </g>
  <line
     x1="400"
     y1="55"
     x2="400"
     y2="315"
     stroke="#B78322"
     stroke-width="2.5"
     id="line1" />
  <path
     d="m 463.55469,130.4375 3.35937,0.52734 V 132 h -10.46875 v -1.03516 l 3.35938,-0.52734 v -23.08594 l -3.35938,-0.50781 v -1.03516 h 10.46875 v 1.03516 l -3.35937,0.50781 z m 35.32422,-23.08594 -3.51563,-0.50781 v -1.03516 h 8.92578 v 1.03516 l -3.35937,0.50781 V 132 h -1.89453 l -16.15235,-23.55469 v 21.99219 l 3.51563,0.52734 V 132 h -8.92578 v -1.03516 l 3.35937,-0.52734 v -23.08594 l -3.35937,-0.50781 v -1.03516 h 7.92968 l 13.47657,19.39454 z m 17.04296,17.59766 h 1.26954 l 0.68359,3.53515 q 0.72266,0.91797 2.48047,1.6211 1.77734,0.70312 3.49609,0.70312 2.73438,0 4.25781,-1.38672 1.54297,-1.40625 1.54297,-3.86718 0,-1.40625 -0.60547,-2.32422 -0.58593,-0.91797 -1.5625,-1.54297 -0.95703,-0.64453 -2.1875,-1.07422 -1.23046,-0.44922 -2.53906,-0.89844 -1.28906,-0.44921 -2.51953,-0.99609 -1.23047,-0.54687 -2.20703,-1.38672 -0.95703,-0.83984 -1.5625,-2.07031 -0.58594,-1.25 -0.58594,-3.06641 0,-3.125 2.34375,-4.90234 2.34375,-1.77734 6.50391,-1.77734 3.16406,0 6.875,0.83984 v 5.44922 h -1.26953 l -0.6836,-3.20313 q -1.99218,-1.44531 -4.92187,-1.44531 -2.61719,0 -4.10156,1.07422 -1.46485,1.05469 -1.46485,2.92969 0,1.26953 0.58594,2.10937 0.60547,0.83985 1.5625,1.44531 0.97656,0.58594 2.20703,1.01563 1.25,0.42969 2.53906,0.89844 1.3086,0.44922 2.53907,1.03515 1.25,0.56641 2.20703,1.46485 0.97656,0.8789 1.5625,2.16797 0.60547,1.26953 0.60547,3.14453 0,3.78906 -2.32422,5.8789 -2.32422,2.07031 -6.69922,2.07031 -2.10938,0 -4.23828,-0.37109 -2.12891,-0.37109 -3.78907,-1.01562 z m 50.16797,-17.59766 -3.51562,-0.50781 v -1.03516 H 571.5 v 1.03516 l -3.35938,0.50781 v 15.64453 q 0,4.70704 -2.59765,7.05078 -2.57813,2.34375 -7.5,2.34375 -5.21485,0 -7.8125,-2.34375 -2.57813,-2.36328 -2.57813,-6.67968 v -16.01563 l -3.35937,-0.50781 v -1.03516 h 10.46875 v 1.03516 l -3.35938,0.50781 v 15.72266 q 0,7.1289 6.9336,7.1289 3.75,0 5.74218,-1.77734 2.01172,-1.77734 2.01172,-5.27344 z m 22.53125,13.16407 v 9.92187 l 3.96485,0.52734 V 132 h -10.83985 v -1.03516 l 3.10547,-0.52734 v -23.08594 l -3.35937,-0.50781 v -1.03516 h 11.30859 q 4.92188,0 7.26563,1.66016 2.34375,1.66016 2.34375,5.33203 0,2.61719 -1.42579,4.53125 -1.42578,1.89453 -3.94531,2.63672 l 7.08985,10.46875 2.83203,0.52734 V 132 h -6.26953 l -7.36329,-11.48437 z m 9.90235,-7.44141 q 0,-2.98828 -1.46485,-4.23828 -1.44531,-1.26953 -5.09765,-1.26953 h -3.33985 v 11.1914 h 3.45703 q 3.4961,0 4.96094,-1.28906 1.48438,-1.30859 1.48438,-4.39453 z m 17.64843,17.89062 3.35938,-0.52734 v -23.08594 l -3.35938,-0.50781 v -1.03516 h 19.64844 v 6.26954 h -1.28906 l -0.625,-4.23829 q -2.1875,-0.27343 -6.32813,-0.27343 h -4.27734 v 10.23437 h 7.07031 l 0.60547,-3.125 h 1.25 v 8.04688 h -1.25 l -0.60547,-3.16407 h -7.07031 v 10.6836 h 5.15625 q 5.03906,0 6.60156,-0.3125 l 1.11328,-4.84375 h 1.28907 L 637.08984,132 h -20.91797 z m 75.39454,1.64063 h -1.03516 l -6.79688,-18.04688 -6.97265,18.04688 h -1.03516 l -8.67187,-25.25391 -2.28516,-0.50781 v -1.03516 h 10 v 1.03516 l -3.84766,0.50781 6.23047,18.45703 7.05078,-18.16406 h 0.87891 l 6.79688,18.16406 5.9375,-18.45703 -4.08204,-0.50781 v -1.03516 h 8.67188 v 1.03516 l -2.28516,0.50781 z m 27.47265,-2.16797 3.35938,0.52734 V 132 h -10.46875 v -1.03516 l 3.35937,-0.52734 v -23.08594 l -3.35937,-0.50781 v -1.03516 h 10.46875 v 1.03516 l -3.35938,0.50781 z M 737.95703,132 v -1.03516 l 4.16016,-0.52734 v -22.94922 h -0.9961 q -4.9414,0 -6.75781,0.39063 l -0.52734,4.08203 h -1.3086 v -6.15235 h 23.04688 v 6.15235 h -1.32813 l -0.52734,-4.08203 q -0.58594,-0.13672 -2.55859,-0.23438 -1.97266,-0.11719 -4.31641,-0.11719 h -0.95703 v 22.91016 l 4.16015,0.52734 V 132 Z m 27.43359,0 v -1.03516 L 768.75,130.4375 v -23.08594 l -3.35938,-0.50781 v -1.03516 h 10.48829 v 1.03516 l -3.35938,0.50781 v 10.29297 h 12.32422 v -10.29297 l -3.35938,-0.50781 v -1.03516 h 10.46875 v 1.03516 l -3.35937,0.50781 v 23.08594 l 3.35937,0.52734 V 132 h -10.46875 v -1.03516 l 3.35938,-0.52734 v -11.03516 h -12.32422 v 11.03516 l 3.35938,0.52734 V 132 Z"
     id="brand-small"
     style="font-size:40px;font-family:Georgia, 'Times New Roman', serif;letter-spacing:8;fill:#82570f"
     aria-label="INSURE WITH" />
  <path
     d="m 495.45703,250 h -1.8457 l -25.89258,-60.80273 v 56.58398 l 9.49219,1.42383 V 250 h -24.09961 v -2.79492 l 9.07031,-1.42383 v -62.33203 l -9.07031,-1.3711 v -2.79492 h 21.41015 l 22.99219,53.78907 25.10156,-53.78907 h 20.25 v 2.79492 l -9.07031,1.3711 v 62.33203 l 9.07031,1.42383 V 250 h -28.6875 v -2.79492 l 9.49219,-1.42383 v -56.58398 z m 73.66992,-4.21875 9.07032,1.42383 V 250 h -28.26563 v -2.79492 l 9.07031,-1.42383 v -62.33203 l -9.07031,-1.3711 v -2.79492 h 28.26563 v 2.79492 l -9.07032,1.3711 z m 73.77539,-62.33203 -9.49218,-1.3711 v -2.79492 h 24.09961 v 2.79492 l -9.07032,1.3711 V 250 h -5.11523 l -43.61133,-63.59766 v 59.37891 l 9.49219,1.42383 V 250 h -24.09961 v -2.79492 l 9.07031,-1.42383 v -62.33203 l -9.07031,-1.3711 v -2.79492 h 21.41015 l 36.38672,52.36524 z m 88.43555,-4.16602 v 2.79492 l -8.17383,1.3711 -24.15234,23.625 30.2168,38.70703 7.64648,1.42383 V 250 h -17.29688 l -27.68554,-35.75391 -9.54492,7.64649 v 23.88867 l 10.125,1.42383 V 250 h -29.37305 v -2.79492 l 9.07031,-1.42383 v -62.33203 l -9.07031,-1.3711 v -2.79492 h 28.31836 v 2.79492 l -9.07031,1.3711 v 33.32812 l 33.85546,-33.32812 -7.01367,-1.3711 v -2.79492 z"
     id="brand-main"
     style="font-size:108px;font-family:Georgia, 'Times New Roman', serif;fill:#082a55"
     aria-label="MINK" />
  <path
     d="m 469.23145,312 v -8.29004 h -9.67383 V 312 h -2.42481 v -17.8877 h 2.42481 v 7.56641 h 9.67383 v -7.56641 h 2.4248 V 312 Z m 10.67773,0 v -17.8877 h 13.57129 v 1.98047 h -11.14649 v 5.73828 h 10.38477 v 1.95508 h -10.38477 v 6.2334 h 11.667 V 312 Z m 34.02441,0 -2.04394,-5.23047 h -8.15039 L 501.68262,312 h -2.51367 l 7.2998,-17.8877 h 2.75488 L 516.40918,312 Z m -6.11914,-16.05957 -0.11425,0.35547 q -0.31739,1.05371 -0.93946,2.7041 l -2.28515,5.87793 h 6.69043 l -2.29786,-5.90332 q -0.35546,-0.87598 -0.71093,-1.98047 z M 522.59277,312 v -17.8877 h 2.42481 v 15.90723 h 9.03906 V 312 Z m 23.53809,-15.90723 V 312 h -2.41211 v -15.90723 h -6.14453 v -1.98047 h 14.70117 v 1.98047 z M 571.10352,312 v -8.29004 h -9.67383 V 312 h -2.42481 v -17.8877 h 2.42481 v 7.56641 h 9.67383 v -7.56641 h 2.4248 V 312 Z m 27.84277,-8.6582 q 0,1.43457 -1.04102,2.50097 -1.02832,1.06641 -2.52636,1.06641 -1.43457,0 -2.46289,-1.05371 -1.01563,-1.05371 -1.01563,-2.51367 0,-1.45996 1.02832,-2.46289 1.02832,-1.01563 2.4502,-1.01563 1.47265,0 2.51367,1.02832 1.05371,1.01563 1.05371,2.4502 z M 617.33105,312 v -17.8877 h 2.42481 v 15.90723 h 9.03906 V 312 Z m 18.72657,0 v -17.8877 h 2.4248 V 312 Z m 13.38183,-15.90723 v 6.65235 h 9.97852 v 2.00586 h -9.97852 V 312 h -2.4248 v -17.8877 h 12.70801 v 1.98047 z M 666.89648,312 v -17.8877 h 13.57129 v 1.98047 h -11.14648 v 5.73828 h 10.38476 v 1.95508 h -10.38476 v 6.2334 h 11.66699 V 312 Z m 38.50684,-8.6582 q 0,1.43457 -1.04102,2.50097 -1.02832,1.06641 -2.52636,1.06641 -1.43457,0 -2.46289,-1.05371 -1.01563,-1.05371 -1.01563,-2.51367 0,-1.45996 1.02832,-2.46289 1.02832,-1.01563 2.4502,-1.01563 1.47265,0 2.51367,1.02832 1.05371,1.01563 1.05371,2.4502 z M 738.99707,312 v -11.93359 q 0,-1.98047 0.11426,-3.8086 -0.62207,2.27246 -1.11719,3.55469 L 733.37305,312 h -1.70118 l -4.68457,-12.1875 -0.71093,-2.1582 -0.41895,-1.39649 0.0381,1.40918 0.0508,2.39942 V 312 h -2.1582 v -17.8877 h 3.18652 l 4.76074,12.40332 q 0.25391,0.74903 0.48242,1.61231 0.24121,0.85059 0.31739,1.23144 0.10156,-0.50781 0.41894,-1.53613 0.33008,-1.04101 0.44434,-1.30762 l 4.67187,-12.40332 h 3.11035 V 312 Z m 10.44922,0 v -17.8877 h 13.57129 v 1.98047 h -11.14649 v 5.73828 h 10.38477 v 1.95508 h -10.38477 v 6.2334 h 11.667 V 312 Z m 36.74121,-9.12793 q 0,2.76758 -1.0791,4.84961 -1.0791,2.06934 -3.05957,3.17383 Q 780.06836,312 777.47852,312 h -6.69043 v -17.8877 h 5.91601 q 4.54492,0 7.00781,2.28516 2.47559,2.27246 2.47559,6.47461 z m -2.4375,0 q 0,-3.32617 -1.82813,-5.06543 -1.81542,-1.75195 -5.26855,-1.75195 h -3.44043 v 14.00293 h 3.98633 q 1.96777,0 3.45312,-0.86328 1.49805,-0.86329 2.29786,-2.48829 0.7998,-1.625 0.7998,-3.83398 z M 793.83105,312 v -17.8877 h 2.42481 V 312 Z m 18.87891,-16.17383 q -2.9707,0 -4.62109,1.91699 -1.65039,1.9043 -1.65039,5.23047 0,3.28809 1.71386,5.29395 1.72657,1.99316 4.65918,1.99316 3.75782,0 5.64942,-3.71972 l 1.98047,0.99023 q -1.1045,2.31055 -3.11036,3.5166 -1.99316,1.20606 -4.63378,1.20606 -2.70411,0 -4.68457,-1.11719 -1.96778,-1.12988 -3.00879,-3.21192 -1.02832,-2.09472 -1.02832,-4.95117 0,-4.27832 2.31054,-6.70312 2.31055,-2.42481 6.39844,-2.42481 2.85645,0 4.77344,1.11719 1.91699,1.11719 2.81836,3.31348 l -2.29785,0.76172 q -0.62207,-1.56153 -2.00586,-2.38672 -1.3711,-0.8252 -3.2627,-0.8252 z M 840.24707,312 l -2.04395,-5.23047 h -8.15039 L 827.99609,312 h -2.51367 l 7.29981,-17.8877 h 2.75488 L 842.72266,312 Z m -6.11914,-16.05957 -0.11426,0.35547 q -0.31738,1.05371 -0.93945,2.7041 l -2.28516,5.87793 h 6.69043 l -2.29785,-5.90332 q -0.35547,-0.87598 -0.71094,-1.98047 z M 861.55078,312 856.9043,304.57324 h -5.57325 V 312 h -2.4248 v -17.8877 h 8.41699 q 3.02149,0 4.65918,1.3584 1.65039,1.34571 1.65039,3.75782 0,1.99316 -1.16797,3.35156 -1.15527,1.3584 -3.19922,1.71387 L 864.34375,312 Z m -0.35547,-12.74609 q 0,-1.56153 -1.0664,-2.37403 -1.05371,-0.82519 -3.04688,-0.82519 h -5.75098 v 6.60156 h 5.85254 q 1.917,0 2.95801,-0.88867 1.05371,-0.90137 1.05371,-2.51367 z M 871.68262,312 v -17.8877 h 13.57129 v 1.98047 h -11.14649 v 5.73828 h 10.38477 v 1.95508 h -10.38477 v 6.2334 h 11.66699 V 312 Z"
     id="brand-descriptor"
     style="font-size:26px;font-family:Arial, Helvetica, sans-serif;letter-spacing:4;fill:#082a55"
     aria-label="HEALTH • LIFE • MEDICARE" />
</svg>
